# xmcd
#
# Track frame offsets: 
#        150
#        12225
#        25512
#        37375
#        48737
#        68000
#        81000
#        94087
#        106112
#        119150
#        131150
#        144975
#        158512
#        169537
#        180350
#        195562
#        209850
#        223050
#        236375
#        247012
#
# Disc length: 3484 seconds
#
# Revision: 0
# Processed by: cddbd v1.5PL3 Copyright (c) Steve Scherf et al.
# Submitted via: ExactAudioCopy v0.95a5
#
DISCID=190d9a14
DTITLE=Tammy Wynette - Legendary Tammy Wynette (disk2)
DYEAR=1900
DGENRE=
TTITLE0=Stand By Your Man
TTITLE1=D-I-V-O-R-C-E
TTITLE2=I Don't Wanna Play House
TTITLE3=Good Lovin'
TTITLE4=Bedtime Story
TTITLE5=Reach Out Your Hand
TTITLE6=My Man Understands
TTITLE7=Till I Get It Right
TTITLE8=Kids Say The Darndest Things
TTITLE9=Another Lonely Song
TTITLE10=Till I Can Make It On My Own
TTITLE11=Woman To Woman
TTITLE12=You Make Me Want To Be A Mother
TTITLE13=I Still Believe In Fairy Tales
TTITLE14=You And Me
TTITLE15=He Was There When I Needed You
TTITLE16=Womanhood
TTITLE17=One Of A Kind
TTITLE18=They Call It Making Love
TTITLE19=No One Else In The World
EXTD=
EXTT0=
EXTT1=
EXTT2=
EXTT3=
EXTT4=
EXTT5=
EXTT6=
EXTT7=
EXTT8=
EXTT9=
EXTT10=
EXTT11=
EXTT12=
EXTT13=
EXTT14=
EXTT15=
EXTT16=
EXTT17=
EXTT18=
EXTT19=
PLAYORDER=
